# xmcd
#
# Track frame offsets: 
#        150
#        25282
#        43690
#        67195
#        90010
#        109872
#        133577
#        158102
#        179860
#        202790
#
# Disc length: 3132 seconds
#
# Revision: 1
# Processed by: cddbd v1.5.2PL0 Copyright (c) Steve Scherf et al.
# Submitted via: ExactAudioCopy v0.95b4
#
DISCID=840c3a0a
DTITLE=MELI'SA MORGAN - The Lady In Me
DYEAR=1990
DGENRE=R&B
TTITLE0=Can You Give Me What I Want
TTITLE1=Stop, Love And Listen
TTITLE2=You Belong To Me
TTITLE3=Situations
TTITLE4=Dancing Into Love
TTITLE5=Don't You Know
TTITLE6=Wrong Lane
TTITLE7=The Lady In Me
TTITLE8=I'm Better Know
TTITLE9=So Long, Goodbye
EXTD=
EXTT0=
EXTT1=
EXTT2=
EXTT3=
EXTT4=
EXTT5=
EXTT6=
EXTT7=
EXTT8=
EXTT9=
PLAYORDER=
